<svg id="Calque_1" data-name="Calque 1" xmlns="http://www.w3.org/2000/svg" viewBox="0 0 14.03 23.01"><defs><style>.cls-1{fill:#e2e2e2;}</style></defs><title>fleches_grey</title><path id="_copie_13" data-name=" copie 13" class="cls-1" d="M1,8.21L1.66,8.9a0.43,0.43,0,0,0,.61,0l0,0L7.7,3.49,13.11,8.9a0.43,0.43,0,0,0,.61,0l0,0,0.69-.69a0.43,0.43,0,0,0,0-.61l0,0L8,1.16a0.43,0.43,0,0,0-.61,0l0,0L1,7.58a0.43,0.43,0,0,0,0,.61l0,0H1Zm13.76,8.65L14,16.17a0.43,0.43,0,0,0-.61,0l0,0L8,21.57,2.59,16.17a0.43,0.43,0,0,0-.61,0l0,0-0.69.69a0.43,0.43,0,0,0,0,.61l0,0L7.68,23.9a0.43,0.43,0,0,0,.61,0l0,0,6.41-6.41a0.43,0.43,0,0,0,0-.61l0,0h0Z" transform="translate(-0.84 -1.03)"/></svg>