<svg xmlns="http://www.w3.org/2000/svg" width="16" height="25" viewBox="0 0 16 25">
  <defs>
    <style>
      .cls-1 {
        fill: #ff380d;
        fill-rule: evenodd;
      }
    </style>
  </defs>
  <path id="_copie_13" data-name="  copie 13" class="cls-1" d="M0.974,8.209L1.662,8.9a0.433,0.433,0,0,0,.633,0L7.7,3.489,13.11,8.9a0.433,0.433,0,0,0,.633,0l0.688-.688a0.433,0.433,0,0,0,0-.633L8.019,1.164a0.433,0.433,0,0,0-.633,0L0.974,7.576a0.433,0.433,0,0,0,0,.633h0Zm13.755,8.645-0.688-.688a0.433,0.433,0,0,0-.633,0L8,21.574,2.594,16.166a0.433,0.433,0,0,0-.633,0l-0.688.688a0.433,0.433,0,0,0,0,.633L7.685,23.9a0.433,0.433,0,0,0,.633,0l6.412-6.412a0.433,0.433,0,0,0,0-.633h0Z"/>
</svg>
