<?xml version="1.0" encoding="UTF-8" standalone="no"?>
<!-- Created with Inkscape (http://www.inkscape.org/) -->

<svg
   xmlns:dc="http://purl.org/dc/elements/1.1/"
   xmlns:cc="http://creativecommons.org/ns#"
   xmlns:rdf="http://www.w3.org/1999/02/22-rdf-syntax-ns#"
   xmlns:svg="http://www.w3.org/2000/svg"
   xmlns="http://www.w3.org/2000/svg"
   xmlns:sodipodi="http://sodipodi.sourceforge.net/DTD/sodipodi-0.dtd"
   xmlns:inkscape="http://www.inkscape.org/namespaces/inkscape"
   width="1122.01"
   height="471.44446"
   viewBox="0 0 1122.01 471.44447"
   id="svg2"
   version="1.1"
   inkscape:version="0.91 r13725"
   sodipodi:docname="proGrandson.svg">
  <title
     id="title4483">logo PRO Grandson</title>
  <defs
     id="defs4" />
  <sodipodi:namedview
     id="base"
     pagecolor="#ffffff"
     bordercolor="#666666"
     borderopacity="0.35294118"
     inkscape:pageopacity="0.0"
     inkscape:pageshadow="2"
     inkscape:zoom="0.70710678"
     inkscape:cx="542.17838"
     inkscape:cy="336.7851"
     inkscape:document-units="px"
     inkscape:current-layer="g4449"
     showgrid="false"
     showguides="true"
     inkscape:guide-bbox="true"
     inkscape:window-width="1855"
     inkscape:window-height="1056"
     inkscape:window-x="65"
     inkscape:window-y="24"
     inkscape:window-maximized="1"
     units="px">
    <sodipodi:guide
       position="1981.3132,-19.79899"
       orientation="1,0"
       id="guide4485" />
  </sodipodi:namedview>
  <metadata
     id="metadata7">
    <rdf:RDF>
      <cc:Work
         rdf:about="">
        <dc:format>image/svg+xml</dc:format>
        <dc:type
           rdf:resource="http://purl.org/dc/dcmitype/StillImage" />
        <dc:title>logo PRO Grandson</dc:title>
        <dc:date>15.07.16</dc:date>
        <dc:creator>
          <cc:Agent>
            <dc:title></dc:title>
          </cc:Agent>
        </dc:creator>
        <dc:rights>
          <cc:Agent>
            <dc:title></dc:title>
          </cc:Agent>
        </dc:rights>
      </cc:Work>
    </rdf:RDF>
  </metadata>
  <g
     inkscape:label="Calque 1"
     inkscape:groupmode="layer"
     id="layer1"
     transform="translate(0,-580.91764)">
    <g
       id="g4449">
      <g
         id="g4470"
         transform="translate(-12.892859,436.94397)">
        <path
           style="fill:#b27354;fill-opacity:1;fill-rule:evenodd;stroke:none;stroke-width:1px;stroke-linecap:butt;stroke-linejoin:miter;stroke-opacity:1"
           d="m 514.5,196.96488 c 24.08821,-11.77191 50.25057,-16.26225 82.20982,-0.40179 l -40.13393,-52.58928 z"
           id="path3349"
           inkscape:connector-curvature="0"
           sodipodi:nodetypes="cccc" />
        <path
           inkscape:connector-curvature="0"
           id="path3353"
           style="fill:#e2e2e2;fill-opacity:1;fill-rule:evenodd;stroke:none;stroke-width:1px;stroke-linecap:butt;stroke-linejoin:miter;stroke-opacity:1"
           d="m 568.21348,242.85298 -11.36319,0.0478 -0.0288,34.13106 11.38393,-0.0893 z m -37.10634,13.55387 16.07143,-0.17858 -0.0893,-43.03571 -16.16072,-0.0893 z m -17.90178,-53.92858 -0.0893,255.40179 c 27.69917,23.34868 67.33536,20.40349 84.86607,-0.0446 l -0.13392,-255.22322 c -20.11083,-12.10561 -44.23394,-18.23946 -84.64285,-0.13397 z" />
        <path
           style="fill:#e2e2e2;fill-opacity:1;fill-rule:evenodd;stroke:none;stroke-width:1px;stroke-linecap:butt;stroke-linejoin:miter;stroke-opacity:1"
           d="m 605.29231,402.70818 c 9.23249,33.17738 39.19756,40.51171 46.53015,33.90324 l -0.12627,-135.36044 c -12.07776,7.54908 -25.56487,12.04012 -46.46702,0.44194 z"
           id="path3363"
           inkscape:connector-curvature="0"
           sodipodi:nodetypes="ccccc" />
        <path
           style="fill:#b27354;fill-opacity:1;fill-rule:evenodd;stroke:none;stroke-width:1px;stroke-linecap:butt;stroke-linejoin:miter;stroke-opacity:1"
           d="m 605.54485,294.8744 15.40482,-32.95623 29.23129,33.20876 c -13.21868,8.40418 -28.6569,10.48806 -44.63611,-0.25253 z"
           id="path3365"
           inkscape:connector-curvature="0"
           sodipodi:nodetypes="cccc" />
        <path
           style="fill:#9cc801;fill-opacity:1;fill-rule:evenodd;stroke:none;stroke-width:1px;stroke-linecap:butt;stroke-linejoin:miter;stroke-opacity:1"
           d="m 605.30357,413.2372 -0.44643,56.60715 c 10.20828,9.37632 24.45838,12.52152 40.35715,13.125 24.392,-0.23261 48.37551,-12.03899 72.05357,-32.5 11.5687,-12.33043 27.00082,-18.56073 43.03571,-23.83929 21.19022,-6.43783 42.59336,-5.21071 64.01786,-3.21429 27.14279,3.35732 39.70722,12.51008 56.42857,20.71429 -14.00572,-10.8109 -27.5323,-22.6969 -56.69643,-31.42857 -16.59606,-4.97343 -34.06266,-8.29284 -53.03571,-8.75 -22.16276,0.74396 -42.24033,4.6157 -59.64286,12.5 -12.3454,4.43369 -28.73669,16.82191 -41.78571,23.75 -13.16607,6.60525 -29.6361,4.71211 -40.08929,1.25 -15.4436,-5.00517 -20.75881,-16.14678 -24.19643,-28.21429 z"
           id="path3367"
           inkscape:connector-curvature="0"
           sodipodi:nodetypes="ccccccccccccc" />
        <path
           inkscape:connector-curvature="0"
           id="path3422"
           style="fill:#b27354;fill-opacity:1;fill-rule:evenodd;stroke:none;stroke-width:1px;stroke-linecap:butt;stroke-linejoin:miter;stroke-opacity:1"
           d="m 730.99317,341.37298 c 8.59818,3.02586 10.89123,9.04577 16.0993,8.11279 -1.5415,2.08874 -4.0064,3.25407 -6.62912,4.26158 0.70425,2.0853 1.29451,3.65766 1.8309,4.98762 l -5.74524,2.33598 -1.67307,-4.07218 c 1.18963,-1.81534 2.69043,-3.64872 3.28299,-5.24016 1.27825,-3.43298 -4.47238,-7.37393 -7.16576,-10.38563 z m 8.83883,-13.70019 c -1.66275,2.74623 -6.67276,4.03729 -10.35406,5.61897 2.09074,3.68355 5.68189,5.95006 9.24921,8.23906 2.00208,-0.74032 2.20166,0.41564 2.96732,1.16798 l 0.31567,-1.9256 c -1.98854,-3.23373 -1.82532,-8.31275 -2.17814,-13.10041 z m 18.46265,52.32781 -6.7634,-11.80804 c -0.62211,0.13702 -1.24261,0.61409 -1.80803,1.18303 l 8.3259,10.84822 z m -14.95868,3.83035 c 0.79599,8.48027 8.21961,15.48811 16.73064,15.75206 8.27472,0.25663 16.03186,-6.5183 17.64612,-14.23683 1.78513,-8.53553 -4.74301,-17.83319 -13.76334,-19.44543 -4.14966,-0.74169 -9.46118,0.55006 -11.01156,1.48142 l 6.71842,12.02937 c 0,0 2.3292,0.40073 3.09358,1.45209 0.76439,1.05137 0.45144,3.14046 -0.5682,4.04061 -1.02561,0.90541 -3.03912,0.92232 -4.10375,0.0631 -1.00208,-0.8087 -1.1664,-2.86523 -0.75761,-3.78807 -0.89069,-1.00337 -7.47264,-8.87745 -8.99459,-10.63858 -4.40667,3.85496 -5.18538,11.20569 -4.98971,13.29026 z m -26.35867,-12.02713 1.32582,1.42053 0.97859,-1.29426 -0.66291,-0.94701 z m 10.78163,13.08517 -1.38393,1.91964 0.44643,0.625 1.29464,-1.83036 z m -2.36607,-0.3125 -1.5625,2.09821 1.29464,0.66965 z m 17.1875,-23.16964 -6.38393,2.00892 -8.57143,15.75893 2.41072,1.96429 z m -31.78572,16.20535 0.93751,0.44643 2.70565,-3.95024 -0.97449,-0.35714 z m 2.41072,1.65178 1.28157,1.09982 2.12815,-5.50885 -1.04364,-0.41239 z m 2.00893,2.85716 c 1.74486,1.1758 2.23724,2.6663 2.90178,4.01785 l 0.75893,-4.64286 c -1.22024,-0.10133 -2.44048,-0.20318 -3.66071,0.62501 z m 11.07143,9.50892 -1.29465,1.29464 0.58036,1.96429 c 1.46262,0.19976 2.2237,-1.20749 0.71429,-3.25893 z m -6.25,8.34822 c -1.89654,7.17383 -6.94372,14.51177 -15.625,15.08928 -5.81121,0.38658 -19.32017,-4.39264 -18.75,-20.22321 0.45665,-12.67856 11.6544,-18.46797 15.98214,-18.70536 3.70541,-0.20325 5.48522,0.38129 7.35972,1.70278 l 5.04875,-7.62589 -3.82397,-9.65158 -1.49039,-1.34682 c -5.17072,0.76359 -6.80296,-0.17692 -6.8709,-2.09635 5.0649,-0.141 5.03758,0.60398 10.96946,-2.51756 2.4739,-1.30185 3.97089,-0.16168 5.19126,0.10685 -2.30017,0.63138 -4.62767,1.23542 -6.02679,2.76785 l 0.0446,2.54465 3.88393,8.92857 5.625,-1.78572 c 1.21164,-3.15527 2.31632,-6.31413 3.12183,-9.46204 -2.55218,-2.9294 -3.94568,-6.27878 -5.6349,-9.55898 -0.89163,-0.69861 -1.68681,-1.42205 -2.83963,-1.77964 -2.97168,-0.92177 -4.89217,-2.35524 -5.87563,-4.45412 -1.93319,-4.1258 1.32567,-7.20295 3.15115,-10.82972 0,0 0.01,-0.94852 -0.1894,-1.36095 -0.20291,-0.42007 -0.9659,-1.01278 -0.9659,-1.01278 -0.61905,-1.09565 1.00901,-2.38541 1.97418,-3.13808 0.75727,-0.59052 2.08545,-0.22599 2.83866,-1.46013 0.64325,-1.05396 0.90288,-1.75301 1.61891,-2.36832 4.5247,-3.88825 5.56944,-6.21106 9.92958,-8.71658 4.46302,-2.56464 10.26132,-2.13721 15.14794,-1.52826 l 0.71839,-3.68331 c -4.40718,-0.42749 -4.76936,-5.10141 0.0779,-5.70384 2.58911,-0.32178 4.69585,-1.15225 6.88042,-0.43877 2.55642,0.83492 5.84889,3.61518 6.19639,5.16681 0,0 1.16282,3.56417 0.26786,4.95536 -0.36108,0.5613 -1.86418,0.73054 -1.86418,0.73054 l -0.33641,1.68017 -1.1368,0.50733 -0.35173,1.72575 -1.4394,-0.005 c -0.0207,1.26973 -1.1181,1.19353 -1.73566,1.71716 -0.75446,4.13179 -2.48513,1.64671 -3.99712,1.27932 -0.27994,-0.068 0.15989,4.74884 -0.33323,7.47068 -0.051,0.28166 -0.75893,0.40178 -0.75893,0.40178 -0.44311,2.82335 -1.52396,6.15983 -0.22322,9.33036 l 1.42858,3.48214 c 1.64993,-1.19728 3.45498,-1.82576 5.35714,-2.09821 l 0.49107,1.875 c -1.41519,-0.14498 -2.88505,-0.15025 -5.04464,1.60714 0.31236,0.75893 0.0858,1.51786 -0.0893,2.27679 2.10464,4.04694 4.52215,4.14512 7.41072,5.9375 0.57775,0.45154 0.85972,1.2411 0.84821,2.36607 0.70771,-0.0215 1.09297,-0.33135 1.47097,-0.7481 0.99876,-1.10111 1.29414,-2.62949 1.34153,-4.34119 l 1.875,-0.26785 c -0.76322,6.48482 -2.7711,7.10496 -7.11353,7.18656 l -1.10076,-0.758 c 0,0 -0.95633,0.22945 -1.33928,0 -0.62248,-0.37298 -0.71112,-1.95122 -0.71112,-1.95122 -2.13591,-0.32926 -4.39935,2.1472 -6.61031,3.46907 l -0.0446,1.20536 5.84821,8.4375 1.60714,0.13393 c 4.27221,-1.62186 11.70015,-2.15471 15.71166,-0.83015 8.6845,2.86755 13.19682,10.19634 13.84192,18.55332 0.86771,11.24071 -10.19984,19.43825 -19.59822,20.53572 -10.12903,1.18279 -20.38081,-6.89938 -20.99746,-20.57084 -0.23264,-5.15774 5.2006,-13.05468 5.9375,-14.16447 l -0.86764,-4.08325 -17.82557,26.21396 0.95281,1.32566 c 1.17047,1.62848 0.40806,5.24968 -2.33132,5.94888 0.21416,1.7407 1.09319,3.00152 1.08636,4.31039 -1.24186,3.14571 -6.25336,0.11733 -7.29395,-1.70394 z m -8.34822,-16.47322 -5.44643,10.08929 10.22322,-0.40179 -2.36607,-2.99107 c -0.6535,-1.57042 0.13467,-1.9875 1.25,-2.14286 z m -2.45536,-2.45536 -6.42857,10.75893 c 0.94531,0.28092 1.57822,0.62352 1.7704,1.23917 l 5.81889,-10.83738 z m -1.65086,-1.09897 c -1.43908,-1.06731 -5.56387,-2.26555 -10.16959,0.23069 -6.53657,3.54273 -9.69729,10.44707 -8.84919,16.67186 0.99434,7.29808 7.26086,15.55991 15.00001,15.26785 8.21164,-0.30988 14.40031,-7.8138 13.21428,-16.69643 l -11.60715,0.3125 c -0.58371,1.80133 -1.68675,2.75586 -3.4375,2.85715 -2.02479,0.11714 -3.01297,-1.08376 -3.16964,-2.76786 -0.21464,-2.30723 0.80976,-3.07201 2.76786,-4.19643 z" />
        <path
           style="fill:#8089c0;fill-opacity:1;fill-rule:evenodd;stroke:none;stroke-width:1px;stroke-linecap:butt;stroke-linejoin:miter;stroke-opacity:1"
           d="m 508.07143,443.05863 -0.17857,16.25 c 12.81901,13.42846 21.21679,14.05073 31.07143,15.98214 -8.20587,3.89502 -16.78229,6.88039 -28.30357,5.89286 -20.10645,-1.7234 -39.37133,-6.51938 -56.69643,-20 l -30.98215,-24.10714 c -9.72118,-7.56403 -24.031,-11.85328 -37.85714,-15 4.94071,-6.72596 10.02677,-13.30656 16.60714,-18.39286 11.61001,11.24301 22.31001,21.53157 45.44643,12.41071 11.06031,5.11466 21.33633,10.78507 28.66072,16.51786 10.93257,8.5569 21.99832,12.44925 32.23214,10.44643 z"
           id="path3424"
           inkscape:connector-curvature="0"
           sodipodi:nodetypes="cccssscccsc" />
        <path
           style="fill:#b27354;fill-opacity:1;fill-rule:evenodd;stroke:none;stroke-width:1px;stroke-linecap:butt;stroke-linejoin:miter;stroke-opacity:1"
           d="m 405.21429,401.54077 c 13.58347,4.92478 30.60595,4.45297 59.55357,-14.73214 l -0.35714,0.0893 c -13.24562,27.83327 -30.55605,41.28334 -59.19643,14.64284 z"
           id="path3426"
           inkscape:connector-curvature="0"
           sodipodi:nodetypes="cccc" />
        <path
           style="fill:#b27354;fill-opacity:1;fill-rule:evenodd;stroke:none;stroke-width:1px;stroke-linecap:butt;stroke-linejoin:miter;stroke-opacity:1"
           d="m 382.17857,418.8622 c 32.05212,-36.79445 69.17393,-43.52782 107.85714,-40.53571 -26.92675,-6.38118 -56.13853,-34.02467 -27.14285,-93.92857 -81.30547,28.80798 -86.21602,93.70888 -80.71429,134.46428 z"
           id="path3428"
           inkscape:connector-curvature="0"
           sodipodi:nodetypes="cccc" />
        <path
           style="fill:#8089c0;fill-opacity:1;fill-rule:evenodd;stroke:none;stroke-width:1px;stroke-linecap:butt;stroke-linejoin:miter;stroke-opacity:1"
           d="m 378.78571,421.89792 c -2.79003,-5.263 -2.50622,-12.15855 -2.5,-19.28572 -41.14151,2.87818 -73.87856,20.79269 -102.32142,39.64286 31.63762,-15.19799 59.28972,-25.21123 104.82142,-20.35714 z"
           id="path3430"
           inkscape:connector-curvature="0"
           sodipodi:nodetypes="cccc" />
        <path
           inkscape:connector-curvature="0"
           id="path3479"
           style="fill:#2957a4;fill-opacity:1;fill-rule:evenodd;stroke:none;stroke-width:1px;stroke-linecap:butt;stroke-linejoin:miter;stroke-opacity:1"
           d="m 1050.4034,517.47414 -0.3536,73.36233 c 1.6387,9.95754 5.972,15.42403 14.6725,13.6118 l 0,3.88909 -36.5928,-0.35355 0.3536,-3.00521 c 6.2591,-0.47449 14.5576,-0.83841 14.4957,-13.78858 l 0,-82.37794 c -3.6277,-8.05947 -8.8725,-10.29701 -14.8493,-9.89949 l 0,-3.88909 27.0469,0.53033 58.3363,81.67083 -0.1768,-67.88225 c -0.015,-5.69974 -4.9115,-10.68352 -13.7886,-10.42982 l -0.1768,-3.35876 35.5322,0 0,3.71231 c -9.659,-0.0791 -13.4113,3.85492 -13.4351,10.6066 l -0.3535,100.40916 -3.182,0 z M 976.51074,497.3216 c -25.2536,-0.35293 -49.47853,24.57889 -49.49748,57.80597 -0.0186,32.54156 18.60706,59.77821 47.19938,60.28086 30.67726,0.53931 52.40356,-21.47914 53.20976,-58.51309 0.9571,-43.96358 -29.16429,-59.26982 -50.91166,-59.57374 z m 0.35355,111.72287 c -19.42621,0.14675 -32.31722,-20.10402 -31.8198,-51.79558 0.33744,-21.49864 5.24433,-52.35065 31.28947,-53.033 21.73245,-0.56937 32.97744,20.07542 33.23404,51.44201 0.286,34.9633 -13.52128,53.24166 -32.70371,53.38657 z m -76.72108,-113.84419 4.06586,-0.17678 3.18198,36.59277 -4.06586,-0.17677 c -4.99639,-17.47572 -16.69839,-31.91025 -30.22882,-28.99138 -13.46577,2.90492 -18.95158,17.1099 -9.08337,27.56446 8.04707,8.52521 15.14941,12.52253 28.17525,21.04913 13.91628,9.10947 18.98286,18.91759 18.56156,30.93593 -1.03505,29.52614 -23.11324,31.00333 -40.12831,30.2288 -6.73039,-0.30637 -19.16369,-11.35465 -20.85965,0.70711 l -3.71231,0 -4.41942,-36.59277 4.41942,-0.17678 c 1.98562,24.69959 39.37322,46.7324 49.17163,14.06894 3.66222,-12.2082 -14.5234,-24.67554 -14.5234,-24.67554 -10.98795,-7.54544 -22.08224,-14.03299 -28.26396,-22.942 -16.79564,-24.20565 1.79008,-48.07235 22.25355,-47.50352 9.49526,0.26394 26.39993,12.64867 25.45585,0.0884 z m -138.76971,12.02081 0,92.80777 c 4.57461,8.8879 26.34628,2.69513 32.88047,-0.70711 36.99063,-19.26042 26.18963,-76.19449 -0.17678,-90.33289 -11.4607,-6.14554 -28.81167,-6.13511 -32.70369,-1.76777 z m -30.40559,-6.36396 0.17678,-3.71231 48.61358,1.06066 c 35.07746,0.76533 53.60041,25.07498 54.5478,51.24517 1.15023,31.77314 -19.21836,61.12564 -52.60325,61.36158 l -50.0278,0.35356 0,-3.53554 c 9.62222,-0.0798 13.08147,-1.90111 13.08147,-15.73312 l 0,-81.14051 c 0,-7.93976 -6.39101,-9.89949 -13.78858,-9.89949 z m -183.75938,65.58416 17.05896,-45.43162 17.85444,45.52 z m -122.54215,-69.05893 -0.27621,4.07415 c 9.76305,0 13.53446,4.55669 13.53446,7.94114 l 0,88.31929 c 0,9.2327 -7.97184,9.21759 -12.63677,9.59843 l 0.20716,3.1074 41.70825,-0.34527 -0.20716,-2.41687 c -6.11913,0 -12.82222,-1.61553 -12.91298,-6.69818 l -0.75959,-42.53689 8.35546,-0.13811 36.94357,53.03301 48.13022,-0.41432 -0.27622,-3.79793 c -4.07832,0 -8.94357,-0.21824 -9.94369,-5.10995 -1.40169,-6.85592 4.95249,-18.18886 7.80304,-28.10474 l 39.91286,0.13811 c 6.14218,13.95141 17.48819,33.21468 -1.10485,33.21468 l 0.1381,3.79794 74.85388,-0.55243 -0.20716,-3.45267 c -6.58351,0.0416 -13.88036,-1.79678 -13.94878,-11.2557 l -0.55243,-76.37306 67.81044,92.94587 2.76213,-0.0691 -0.069,-97.29624 c -0.01,-13.55413 8.22652,-13.81068 14.77743,-13.81068 l 0.0691,-4.07415 -37.15073,0.48338 0.20716,3.45267 c 6.95086,0 14.36076,1.0871 14.43216,12.49866 l 0.41432,66.22221 -58.41917,-82.31165 -26.30935,-0.0691 0,3.86699 c 6.35821,0 14.80904,3.64372 14.77743,9.94369 l -0.41432,82.58786 c -0.0724,14.43965 -19.5875,19.60283 -26.93118,1.15177 l -39.70535,-99.76002 -2.64706,0 -34.57233,89.78036 c -8.2811,21.50507 -10.5169,31.13478 -26.49702,9.0641 l -27.01975,-37.31788 c 32.88888,-7.54849 41.50168,-52.30757 -6.0767,-59.52403 z m 29.20959,54.27597 0.13811,-43.22743 c -0.68735,-5.3876 20.65729,-4.49127 26.10218,0 18.50053,15.26034 4.55979,34.77689 0.41432,37.42694 -6.54866,4.18632 -15.11777,6.51897 -26.65461,5.80049 z m -47.64685,-20.3451 -0.25254,-36.23923 -3.91434,0 c -1.79804,3.68544 -4.38784,5.78735 -8.20749,5.42957 -6.2213,-1.82315 -12.36152,-3.78142 -19.06663,-4.79822 -4.43729,-0.2607 -8.87458,-0.35228 -13.31186,0.0346 -24.71549,2.15462 -42.85733,24.57411 -45.57493,43.97613 -1.1044,7.88473 -1.62765,16.90377 -1.30312,25.2252 0.57978,14.86641 12.47856,31.69446 12.71274,31.14803 9.34301,10.95932 21.03807,14.79642 32.57742,16.92005 11.58134,1.71621 24.03227,0.29181 34.09265,-3.53553 4.89795,-2.12211 10.14045,-3.80123 13.82255,-7.48658 l 0.0893,-40.44642 c 0.007,-3.00588 2.31924,-7.18801 7.23214,-7.32143 l 3.87975,-0.12975 -0.0405,-3.88811 -40.26786,0.26786 0.0893,3.75 8.21429,0.0893 c 4.71133,1.57809 5.89286,4.03172 5.89286,6.69643 l 0,37.67857 c -2.14664,4.00494 -4.61123,5.00752 -9.59404,6.72502 -4.09206,1.41047 -6.78234,1.27315 -9.87025,1.3107 -4.00101,0.007 -7.81744,0.22633 -11.37975,-0.58806 -15.17321,-3.46875 -19.89001,-14.27244 -24.005,-20.52236 -6.16071,-16.08659 -11.74028,-35.66317 0.75762,-62.882 7.62358,-13.6509 18.50794,-23.53543 38.7429,-19.45728 15.23248,2.44391 24.34195,22.03601 25.08611,27.98044 z M 253.25,528.8622 c -15.73619,-0.64291 -25.06161,13.77026 -23.92857,27.32143 0.82899,9.91474 10.89322,19.62021 22.5,20 13.48365,0.4412 21.80504,-9.56394 23.21428,-20.89285 1.4994,-12.05366 -6.19788,-25.79173 -21.78571,-26.42858 z m -2.85714,-40.35714 c -38.28655,0.91472 -64.60136,27.77816 -66.25,61.60714 -1.69723,34.82581 27.95629,62.92253 63.39285,64.64286 47.1308,2.28804 66.08042,-30.79618 64.46429,-31.07143 -4.49555,-15.96886 -11.04869,-30.26941 1.42857,-60 -4.73848,-12.84417 -30.63738,-35.95262 -63.03571,-35.17857 z m -101.96429,35.17857 0.17857,20.89286 11.07143,-0.53572 c 6.86098,-1.7393 12.42816,-15.72804 -1.25,-19.28571 z m -43.21428,-33.57143 0.17857,122.32143 43.39285,0.71429 0,-39.28572 20,39.28572 49.10715,0 c -30.64348,-16.25909 -60.60579,-60.93394 -19.82143,-108.21429 -11.42625,-9.82508 -19.78229,-12.66638 -35,-14.28572 z m -49.107151,33.92858 -0.17857,21.07142 10.71429,0 c 12.292302,-0.95751 14.833283,-19.2457 -0.17857,-21.07142 z m -43.21428,-33.57143 0.71428,122.85714 42.67857,-0.35714 -0.35714,-37.14286 25.178573,0 c 9.190653,0 14.780128,-2.7773 18.75,-6.96429 l 0.357138,-68.57143 c -4.57489,-5.92159 -16.731722,-9.6107 -27.499996,-9.64285 z" />
      </g>
    </g>
  </g>
</svg>
